<svg xmlns="http://www.w3.org/2000/svg" xmlns:xlink="http://www.w3.org/1999/xlink" width="1080" zoomAndPan="magnify" viewBox="0 0 810 809.999993" height="1080" preserveAspectRatio="xMidYMid meet" version="1.0"><path fill="#ffffff" d="M 416.570312 553.113281 C 384.171875 553.113281 367.972656 555.429688 337.886719 539.230469 C 293.914062 516.085938 254.570312 469.800781 254.570312 411.941406 C 254.570312 381.855469 256.886719 365.65625 270.769531 337.886719 C 275.398438 328.628906 280.027344 321.6875 284.65625 314.742188 C 289.285156 307.800781 293.914062 300.855469 300.855469 296.230469 C 324 275.398438 342.515625 263.828125 372.601562 259.199219 C 418.886719 247.628906 467.484375 259.199219 502.199219 289.285156 C 553.113281 335.570312 569.3125 402.6875 541.542969 467.484375 C 532.285156 486 527.65625 490.628906 516.085938 504.515625 C 516.085938 506.828125 516.085938 506.828125 513.769531 509.144531 C 492.941406 529.972656 455.914062 553.113281 416.570312 553.113281 Z M 576.257812 175.886719 C 576.257812 196.714844 573.941406 205.972656 590.144531 222.171875 C 594.769531 224.484375 597.085938 226.800781 601.714844 229.113281 C 641.058594 245.3125 673.457031 219.855469 673.457031 189.769531 C 673.457031 173.570312 671.144531 162 659.570312 150.429688 C 657.257812 148.113281 650.3125 141.171875 648 138.855469 C 629.484375 131.914062 608.65625 134.230469 592.457031 148.113281 C 585.515625 152.742188 576.257812 164.3125 576.257812 175.886719 Z M 212.914062 0 L 597.085938 0 C 654.941406 0 708.171875 23.144531 747.515625 62.484375 C 786.855469 101.828125 810 155.058594 810 212.914062 L 810 597.085938 C 810 654.941406 786.855469 708.171875 747.515625 747.515625 C 708.171875 786.855469 654.941406 810 597.085938 810 L 212.914062 810 C 155.058594 810 101.828125 786.855469 62.484375 747.515625 C 23.144531 708.171875 0 654.941406 0 597.085938 L 0 212.914062 C 0 155.058594 23.144531 101.828125 62.484375 62.484375 C 101.828125 23.144531 155.058594 0 212.914062 0 Z M 597.085938 53.230469 L 212.914062 53.230469 C 168.941406 53.230469 129.601562 71.742188 99.515625 99.515625 C 71.742188 129.601562 53.230469 168.941406 53.230469 212.914062 L 53.230469 597.085938 C 53.230469 641.058594 71.742188 680.398438 99.515625 710.484375 C 129.601562 738.257812 168.941406 756.769531 212.914062 756.769531 L 597.085938 756.769531 C 641.058594 756.769531 680.398438 738.257812 710.484375 710.484375 C 738.257812 680.398438 756.769531 641.058594 756.769531 597.085938 L 756.769531 212.914062 C 756.769531 168.941406 738.257812 129.601562 710.484375 99.515625 C 680.398438 71.742188 641.058594 53.230469 597.085938 53.230469 Z M 194.398438 388.800781 C 194.398438 411.941406 192.085938 432.769531 199.027344 455.914062 C 203.65625 483.6875 222.171875 516.085938 238.371094 539.230469 L 263.828125 564.6875 C 280.027344 576.257812 284.65625 583.199219 307.800781 594.769531 C 328.628906 604.027344 361.027344 615.601562 384.171875 615.601562 C 432.769531 615.601562 453.601562 617.914062 495.257812 597.085938 C 506.828125 592.457031 518.398438 585.515625 527.65625 578.570312 L 548.484375 562.371094 C 557.742188 555.429688 555.429688 553.113281 560.058594 548.484375 L 571.628906 534.601562 C 573.941406 532.285156 576.257812 529.972656 578.570312 527.65625 C 580.886719 523.027344 585.515625 518.398438 587.828125 513.769531 C 604.027344 483.6875 615.601562 451.285156 615.601562 414.257812 C 615.601562 379.542969 613.285156 349.457031 601.714844 326.3125 C 587.828125 293.914062 573.941406 270.769531 548.484375 247.628906 C 541.542969 243 536.914062 240.6875 532.285156 236.058594 C 511.457031 217.542969 472.113281 201.34375 442.027344 196.714844 C 391.113281 187.457031 333.257812 196.714844 293.914062 224.484375 C 282.34375 231.429688 256.886719 249.941406 249.941406 259.199219 C 247.628906 263.828125 247.628906 263.828125 243 266.144531 C 236.058594 273.085938 226.800781 289.285156 222.171875 298.542969 C 208.285156 321.6875 194.398438 356.398438 194.398438 388.800781 Z M 194.398438 388.800781 " fill-opacity="1" fill-rule="evenodd"/></svg>