<svg xmlns="http://www.w3.org/2000/svg" xmlns:xlink="http://www.w3.org/1999/xlink" width="1080" zoomAndPan="magnify" viewBox="0 0 810 809.999993" height="1080" preserveAspectRatio="xMidYMid meet" version="1.0"><defs><clipPath id="id1"><path d="M 5.613281 119.980469 L 804.386719 119.980469 L 804.386719 689.980469 L 5.613281 689.980469 Z M 5.613281 119.980469 " clip-rule="nonzero"/></clipPath></defs><g clip-path="url(#id1)"><path fill="#ffffff" d="M 512.578125 447.726562 L 697.660156 633.4375 L 112.621094 633.4375 L 298.34375 448.082031 L 349.402344 496.511719 C 380.394531 525.867188 430.175781 525.867188 461.164062 496.511719 Z M 747.300781 224.574219 L 747.300781 602.59375 L 553.566406 408.511719 Z M 62.699219 224.574219 L 257.003906 408.796875 L 62.699219 602.59375 Z M 95.390625 177.0625 L 714.964844 177.0625 L 421.949219 455.171875 C 411.242188 465.3125 399.328125 465.3125 388.617188 455.171875 Z M 91.207031 119.980469 C 43.691406 119.980469 5.613281 160.117188 5.613281 207.625 L 5.613281 602.59375 C 5.613281 650.101562 43.691406 690.519531 91.207031 690.519531 L 718.792969 690.519531 C 766.308594 690.519531 804.386719 650.101562 804.386719 602.59375 L 804.386719 207.625 C 804.386719 160.117188 766.308594 119.980469 718.792969 119.980469 L 91.207031 119.980469 " fill-opacity="1" fill-rule="nonzero"/></g></svg>