<svg xmlns="http://www.w3.org/2000/svg" xmlns:xlink="http://www.w3.org/1999/xlink" width="500" zoomAndPan="magnify" viewBox="0 0 375 374.999991" height="500" preserveAspectRatio="xMidYMid meet" version="1.0"><defs><g/><clipPath id="id1"><path d="M 124.246094 110.328125 L 250.996094 110.328125 L 250.996094 198.078125 L 124.246094 198.078125 Z M 124.246094 110.328125 " clip-rule="nonzero"/></clipPath></defs><g clip-path="url(#id1)"><path fill="#ffc700" d="M 226.132812 110.328125 L 204.125 110.328125 L 160.691406 179.59375 L 146.359375 154.203125 L 171.117188 110.328125 L 149.109375 110.328125 L 124.351562 154.203125 L 149.109375 198.078125 L 171.117188 198.078125 L 214.550781 128.808594 L 228.882812 154.203125 L 204.125 198.078125 L 226.132812 198.078125 L 250.890625 154.203125 Z M 226.132812 110.328125 " fill-opacity="1" fill-rule="nonzero"/></g><g fill="#ffffff" fill-opacity="1"><g transform="translate(52.663402, 257.35593)"><g><path d="M 14.410156 -32.289062 C 13.964844 -32.289062 13.761719 -32.046875 13.761719 -31.644531 L 13.761719 -14.609375 L 13.519531 -14.609375 L 7.386719 -31.765625 C 7.265625 -32.128906 7.023438 -32.289062 6.660156 -32.289062 L 2.664062 -32.289062 C 2.261719 -32.289062 2.019531 -32.046875 2.019531 -31.644531 L 2.019531 -0.644531 C 2.019531 -0.242188 2.261719 0 2.664062 0 L 6.863281 0 C 7.304688 0 7.507812 -0.242188 7.507812 -0.644531 L 7.507812 -17.757812 L 7.710938 -17.757812 L 13.882812 -0.523438 C 14.003906 -0.160156 14.246094 0 14.609375 0 L 18.605469 0 C 19.011719 0 19.253906 -0.242188 19.253906 -0.644531 L 19.253906 -31.644531 C 19.253906 -32.046875 19.011719 -32.289062 18.605469 -32.289062 Z M 14.410156 -32.289062 "/></g></g></g><g fill="#ffffff" fill-opacity="1"><g transform="translate(73.929093, 257.35593)"><g><path d="M 18.121094 -31.644531 C 18.121094 -32.046875 17.960938 -32.289062 17.476562 -32.289062 L 2.625 -32.289062 C 2.261719 -32.289062 2.019531 -32.046875 2.019531 -31.644531 L 2.019531 -0.644531 C 2.019531 -0.242188 2.261719 0 2.625 0 L 17.476562 0 C 17.960938 0 18.121094 -0.242188 18.121094 -0.644531 L 18.121094 -4.683594 C 18.121094 -5.125 17.960938 -5.328125 17.476562 -5.328125 L 7.386719 -5.328125 L 7.386719 -13.480469 L 15.09375 -13.480469 C 15.5 -13.480469 15.742188 -13.722656 15.742188 -14.167969 L 15.742188 -18.164062 C 15.742188 -18.605469 15.5 -18.847656 15.09375 -18.847656 L 7.386719 -18.847656 L 7.386719 -26.921875 L 17.476562 -26.921875 C 17.960938 -26.921875 18.121094 -27.203125 18.121094 -27.609375 Z M 18.121094 -31.644531 "/></g></g></g><g fill="#ffffff" fill-opacity="1"><g transform="translate(94.064919, 257.35593)"><g><path d="M 24.097656 -32.289062 C 23.613281 -32.289062 23.289062 -32.007812 23.25 -31.523438 L 21.59375 -12.632812 L 21.390625 -12.632812 L 17.4375 -31.5625 C 17.316406 -32.046875 17.03125 -32.289062 16.546875 -32.289062 L 14.125 -32.289062 C 13.640625 -32.289062 13.359375 -32.046875 13.238281 -31.5625 L 9.242188 -12.632812 L 9.042969 -12.632812 L 7.46875 -31.523438 C 7.425781 -32.007812 7.105469 -32.289062 6.621094 -32.289062 L 2.785156 -32.289062 C 2.261719 -32.289062 1.976562 -31.96875 2.019531 -31.441406 L 5.328125 -0.765625 C 5.367188 -0.242188 5.652344 0 6.175781 0 L 10.210938 0 C 10.695312 0 10.980469 -0.242188 11.101562 -0.6875 L 15.335938 -18.96875 L 19.535156 -0.726562 C 19.65625 -0.242188 19.9375 0 20.421875 0 L 24.378906 0 C 24.902344 0 25.1875 -0.242188 25.226562 -0.765625 L 28.699219 -31.441406 C 28.738281 -31.96875 28.457031 -32.289062 27.929688 -32.289062 Z M 24.097656 -32.289062 "/></g></g></g><g fill="#ffffff" fill-opacity="1"><g transform="translate(124.773065, 257.35593)"><g><path d="M 18.203125 -26.476562 C 18.203125 -30.273438 16.144531 -32.289062 12.351562 -32.289062 L 2.664062 -32.289062 C 2.261719 -32.289062 2.019531 -32.089844 2.019531 -31.644531 L 2.019531 -0.644531 C 2.019531 -0.242188 2.261719 0 2.664062 0 L 12.351562 0 C 16.144531 0 18.203125 -2.019531 18.203125 -5.8125 L 18.203125 -13.238281 C 18.203125 -14.730469 17.113281 -15.863281 15.660156 -16.105469 L 15.660156 -16.183594 C 17.113281 -16.425781 18.203125 -17.558594 18.203125 -19.050781 Z M 12.835938 -20.382812 C 12.835938 -19.375 12.269531 -18.808594 11.222656 -18.808594 L 7.546875 -18.808594 L 7.546875 -26.960938 L 11.222656 -26.960938 C 12.308594 -26.960938 12.835938 -26.398438 12.835938 -25.347656 Z M 12.835938 -6.941406 C 12.835938 -5.851562 12.269531 -5.328125 11.222656 -5.328125 L 7.546875 -5.328125 L 7.546875 -13.480469 L 11.222656 -13.480469 C 12.308594 -13.480469 12.835938 -12.914062 12.835938 -11.867188 Z M 12.835938 -6.941406 "/></g></g></g><g fill="#ffffff" fill-opacity="1"><g transform="translate(144.989597, 257.35593)"><g><path d="M 21.472656 0 C 21.957031 0 22.117188 -0.242188 22.039062 -0.6875 L 15.335938 -31.726562 C 15.257812 -32.128906 15.015625 -32.289062 14.652344 -32.289062 L 9.042969 -32.289062 C 8.679688 -32.289062 8.4375 -32.128906 8.355469 -31.726562 L 1.65625 -0.6875 C 1.535156 -0.242188 1.734375 0 2.179688 0 L 6.5 0 C 6.863281 0 7.0625 -0.203125 7.144531 -0.566406 L 8.234375 -6.457031 L 15.417969 -6.457031 L 16.546875 -0.566406 C 16.628906 -0.203125 16.832031 0 17.195312 0 Z M 14.410156 -11.140625 L 9.242188 -11.140625 L 11.828125 -25.226562 Z M 14.410156 -11.140625 "/></g></g></g><g fill="#ffffff" fill-opacity="1"><g transform="translate(168.636081, 257.35593)"><g><path d="M 7.832031 -32.289062 C 4.078125 -32.289062 2.019531 -30.273438 2.019531 -26.476562 L 2.019531 -16.953125 C 2.019531 -16.183594 2.382812 -15.699219 3.109375 -15.457031 L 12.671875 -12.308594 L 12.671875 -6.941406 C 12.671875 -5.851562 12.109375 -5.328125 11.058594 -5.328125 L 9.121094 -5.328125 C 8.113281 -5.328125 7.507812 -5.851562 7.507812 -6.941406 L 7.507812 -10.050781 C 7.507812 -10.496094 7.304688 -10.695312 6.863281 -10.695312 L 2.664062 -10.695312 C 2.261719 -10.695312 2.019531 -10.496094 2.019531 -10.050781 L 2.019531 -5.8125 C 2.019531 -2.019531 4.078125 0 7.832031 0 L 12.351562 0 C 16.144531 0 18.164062 -2.019531 18.164062 -5.8125 L 18.164062 -15.136719 C 18.164062 -15.902344 17.800781 -16.347656 17.113281 -16.628906 L 7.507812 -19.777344 L 7.507812 -25.347656 C 7.507812 -26.398438 8.113281 -26.960938 9.121094 -26.960938 L 11.058594 -26.960938 C 12.148438 -26.960938 12.671875 -26.398438 12.671875 -25.347656 L 12.671875 -22.199219 C 12.671875 -21.796875 12.914062 -21.554688 13.320312 -21.554688 L 17.515625 -21.554688 C 17.960938 -21.554688 18.164062 -21.796875 18.164062 -22.199219 L 18.164062 -26.476562 C 18.164062 -30.273438 16.144531 -32.289062 12.351562 -32.289062 Z M 7.832031 -32.289062 "/></g></g></g><g fill="#ffffff" fill-opacity="1"><g transform="translate(188.812254, 257.35593)"><g/></g></g><g fill="#ffffff" fill-opacity="1"><g transform="translate(198.90034, 257.35593)"><g><path d="M 2.019531 -5.8125 C 2.019531 -2.019531 4.035156 0 7.832031 0 L 13.15625 0 C 16.910156 0 18.96875 -2.019531 18.96875 -5.8125 L 18.96875 -17.03125 C 18.96875 -17.476562 18.726562 -17.679688 18.324219 -17.679688 L 11.542969 -17.679688 C 11.101562 -17.679688 10.898438 -17.476562 10.898438 -17.03125 L 10.898438 -12.996094 C 10.898438 -12.59375 11.101562 -12.351562 11.542969 -12.351562 L 13.640625 -12.351562 L 13.640625 -6.941406 C 13.640625 -5.851562 13.078125 -5.328125 12.027344 -5.328125 L 9.121094 -5.328125 C 8.074219 -5.328125 7.507812 -5.851562 7.507812 -6.941406 L 7.507812 -25.347656 C 7.507812 -26.398438 8.03125 -26.960938 9.121094 -26.960938 L 12.027344 -26.960938 C 13.078125 -26.960938 13.640625 -26.398438 13.640625 -25.347656 L 13.640625 -22.28125 C 13.640625 -21.875 13.84375 -21.632812 14.289062 -21.632812 L 18.324219 -21.632812 C 18.726562 -21.632812 18.96875 -21.875 18.96875 -22.28125 L 18.96875 -26.476562 C 18.96875 -30.273438 16.910156 -32.289062 13.15625 -32.289062 L 7.832031 -32.289062 C 4.035156 -32.289062 2.019531 -30.273438 2.019531 -26.476562 Z M 2.019531 -5.8125 "/></g></g></g><g fill="#ffffff" fill-opacity="1"><g transform="translate(219.883568, 257.35593)"><g><path d="M 21.472656 0 C 21.957031 0 22.117188 -0.242188 22.039062 -0.6875 L 15.335938 -31.726562 C 15.257812 -32.128906 15.015625 -32.289062 14.652344 -32.289062 L 9.042969 -32.289062 C 8.679688 -32.289062 8.4375 -32.128906 8.355469 -31.726562 L 1.65625 -0.6875 C 1.535156 -0.242188 1.734375 0 2.179688 0 L 6.5 0 C 6.863281 0 7.0625 -0.203125 7.144531 -0.566406 L 8.234375 -6.457031 L 15.417969 -6.457031 L 16.546875 -0.566406 C 16.628906 -0.203125 16.832031 0 17.195312 0 Z M 14.410156 -11.140625 L 9.242188 -11.140625 L 11.828125 -25.226562 Z M 14.410156 -11.140625 "/></g></g></g><g fill="#ffffff" fill-opacity="1"><g transform="translate(243.530052, 257.35593)"><g><path d="M 18.890625 -32.289062 C 18.40625 -32.289062 18.121094 -32.046875 18 -31.5625 L 13.519531 -11.464844 L 9.042969 -31.5625 C 8.921875 -32.046875 8.636719 -32.289062 8.152344 -32.289062 L 2.824219 -32.289062 C 2.300781 -32.289062 2.019531 -32.007812 2.019531 -31.484375 L 2.019531 -0.808594 C 2.019531 -0.28125 2.300781 0 2.824219 0 L 6.539062 0 C 7.0625 0 7.347656 -0.28125 7.347656 -0.808594 L 7.347656 -18.96875 L 7.628906 -18.96875 L 11.625 -0.726562 C 11.746094 -0.242188 12.027344 0 12.511719 0 L 14.488281 0 C 14.972656 0 15.257812 -0.242188 15.378906 -0.726562 L 19.375 -18.96875 L 19.65625 -18.96875 L 19.65625 -0.808594 C 19.65625 -0.28125 19.9375 0 20.464844 0 L 24.21875 0 C 24.742188 0 25.023438 -0.28125 25.023438 -0.808594 L 25.023438 -31.484375 C 25.023438 -32.007812 24.742188 -32.289062 24.21875 -32.289062 Z M 18.890625 -32.289062 "/></g></g></g><g fill="#ffffff" fill-opacity="1"><g transform="translate(270.56613, 257.35593)"><g><path d="M 2.664062 -32.289062 C 2.21875 -32.289062 2.019531 -32.046875 2.019531 -31.644531 L 2.019531 -0.644531 C 2.019531 -0.242188 2.21875 0 2.664062 0 L 6.863281 0 C 7.265625 0 7.507812 -0.242188 7.507812 -0.644531 L 7.507812 -31.644531 C 7.507812 -32.046875 7.265625 -32.289062 6.863281 -32.289062 Z M 2.664062 -32.289062 "/></g></g></g><g fill="#ffffff" fill-opacity="1"><g transform="translate(280.089302, 257.35593)"><g><path d="M 14.410156 -32.289062 C 13.964844 -32.289062 13.761719 -32.046875 13.761719 -31.644531 L 13.761719 -14.609375 L 13.519531 -14.609375 L 7.386719 -31.765625 C 7.265625 -32.128906 7.023438 -32.289062 6.660156 -32.289062 L 2.664062 -32.289062 C 2.261719 -32.289062 2.019531 -32.046875 2.019531 -31.644531 L 2.019531 -0.644531 C 2.019531 -0.242188 2.261719 0 2.664062 0 L 6.863281 0 C 7.304688 0 7.507812 -0.242188 7.507812 -0.644531 L 7.507812 -17.757812 L 7.710938 -17.757812 L 13.882812 -0.523438 C 14.003906 -0.160156 14.246094 0 14.609375 0 L 18.605469 0 C 19.011719 0 19.253906 -0.242188 19.253906 -0.644531 L 19.253906 -31.644531 C 19.253906 -32.046875 19.011719 -32.289062 18.605469 -32.289062 Z M 14.410156 -32.289062 "/></g></g></g><g fill="#ffffff" fill-opacity="1"><g transform="translate(301.354993, 257.35593)"><g><path d="M 2.019531 -5.8125 C 2.019531 -2.019531 4.035156 0 7.832031 0 L 13.15625 0 C 16.910156 0 18.96875 -2.019531 18.96875 -5.8125 L 18.96875 -17.03125 C 18.96875 -17.476562 18.726562 -17.679688 18.324219 -17.679688 L 11.542969 -17.679688 C 11.101562 -17.679688 10.898438 -17.476562 10.898438 -17.03125 L 10.898438 -12.996094 C 10.898438 -12.59375 11.101562 -12.351562 11.542969 -12.351562 L 13.640625 -12.351562 L 13.640625 -6.941406 C 13.640625 -5.851562 13.078125 -5.328125 12.027344 -5.328125 L 9.121094 -5.328125 C 8.074219 -5.328125 7.507812 -5.851562 7.507812 -6.941406 L 7.507812 -25.347656 C 7.507812 -26.398438 8.03125 -26.960938 9.121094 -26.960938 L 12.027344 -26.960938 C 13.078125 -26.960938 13.640625 -26.398438 13.640625 -25.347656 L 13.640625 -22.28125 C 13.640625 -21.875 13.84375 -21.632812 14.289062 -21.632812 L 18.324219 -21.632812 C 18.726562 -21.632812 18.96875 -21.875 18.96875 -22.28125 L 18.96875 -26.476562 C 18.96875 -30.273438 16.910156 -32.289062 13.15625 -32.289062 L 7.832031 -32.289062 C 4.035156 -32.289062 2.019531 -30.273438 2.019531 -26.476562 Z M 2.019531 -5.8125 "/></g></g></g><g fill="#ffc700" fill-opacity="1"><g transform="translate(109.721622, 282.697453)"><g><path d="M 6.953125 -8.632812 L 4.203125 -1.613281 L 1.417969 -8.632812 L 0.222656 -8.632812 L 3.710938 0 L 4.710938 0 L 8.136719 -8.632812 Z M 6.953125 -8.632812 "/></g></g></g><g fill="#ffc700" fill-opacity="1"><g transform="translate(122.471485, 282.697453)"><g><path d="M 7.199219 0 L 8.371094 0 L 4.746094 -8.632812 L 3.734375 -8.632812 L 0.210938 0 L 1.355469 0 L 2.195312 -2.058594 L 6.351562 -2.058594 Z M 4.253906 -7.140625 L 5.941406 -3.058594 L 2.601562 -3.058594 Z M 4.253906 -7.140625 "/></g></g></g><g fill="#ffc700" fill-opacity="1"><g transform="translate(135.406262, 282.697453)"><g><path d="M 2.257812 -1.011719 L 2.257812 -8.632812 L 1.171875 -8.632812 L 1.171875 0 L 6.042969 0 L 6.042969 -1.011719 Z M 2.257812 -1.011719 "/></g></g></g><g fill="#ffc700" fill-opacity="1"><g transform="translate(146.060336, 282.697453)"><g><path d="M 5.105469 0.148438 C 7.71875 0.148438 9.617188 -1.761719 9.617188 -4.304688 C 9.617188 -6.855469 7.71875 -8.765625 5.105469 -8.765625 C 2.492188 -8.765625 0.578125 -6.855469 0.578125 -4.304688 C 0.578125 -1.761719 2.492188 0.148438 5.105469 0.148438 Z M 5.105469 -0.914062 C 3.144531 -0.914062 1.6875 -2.378906 1.6875 -4.304688 C 1.6875 -6.238281 3.144531 -7.707031 5.105469 -7.707031 C 7.066406 -7.707031 8.519531 -6.25 8.519531 -4.304688 C 8.519531 -2.367188 7.066406 -0.914062 5.105469 -0.914062 Z M 5.105469 -0.914062 "/></g></g></g><g fill="#ffc700" fill-opacity="1"><g transform="translate(160.622426, 282.697453)"><g><path d="M 6.203125 0 L 7.421875 0 L 5.351562 -3.5 C 6.484375 -3.824219 7.261719 -4.773438 7.261719 -5.992188 C 7.261719 -7.519531 6.066406 -8.632812 4.449219 -8.632812 L 1.171875 -8.632812 L 1.171875 0 L 2.257812 0 L 2.257812 -3.367188 L 4.21875 -3.367188 Z M 2.257812 -7.59375 L 4.390625 -7.59375 C 5.449219 -7.59375 6.152344 -6.917969 6.152344 -5.992188 C 6.152344 -5.066406 5.449219 -4.402344 4.390625 -4.402344 L 2.257812 -4.402344 Z M 2.257812 -7.59375 "/></g></g></g><g fill="#ffc700" fill-opacity="1"><g transform="translate(172.903813, 282.697453)"><g><path d="M 7.199219 0 L 8.371094 0 L 4.746094 -8.632812 L 3.734375 -8.632812 L 0.210938 0 L 1.355469 0 L 2.195312 -2.058594 L 6.351562 -2.058594 Z M 4.253906 -7.140625 L 5.941406 -3.058594 L 2.601562 -3.058594 Z M 4.253906 -7.140625 "/></g></g></g><g fill="#ffc700" fill-opacity="1"><g transform="translate(185.838588, 282.697453)"><g><path d="M 6.992188 -8.632812 L 6.992188 -1.972656 L 2.15625 -8.632812 L 1.171875 -8.632812 L 1.171875 0 L 2.230469 0 L 2.230469 -6.730469 L 7.140625 0 L 8.050781 0 L 8.050781 -8.632812 Z M 6.992188 -8.632812 "/></g></g></g><g fill="#ffc700" fill-opacity="1"><g transform="translate(199.414427, 282.697453)"><g><path d="M 6.585938 -8.632812 L 0.257812 -8.632812 L 0.257812 -7.609375 L 2.886719 -7.609375 L 2.886719 0 L 3.957031 0 L 3.957031 -7.609375 L 6.585938 -7.609375 Z M 6.585938 -8.632812 "/></g></g></g><g fill="#ffc700" fill-opacity="1"><g transform="translate(210.610942, 282.697453)"><g/></g></g><g fill="#ffc700" fill-opacity="1"><g transform="translate(218.182983, 282.697453)"><g><path d="M 6.585938 -8.632812 L 0.257812 -8.632812 L 0.257812 -7.609375 L 2.886719 -7.609375 L 2.886719 0 L 3.957031 0 L 3.957031 -7.609375 L 6.585938 -7.609375 Z M 6.585938 -8.632812 "/></g></g></g><g fill="#ffc700" fill-opacity="1"><g transform="translate(229.379492, 282.697453)"><g><path d="M 2.257812 -1.035156 L 2.257812 -3.933594 L 5.734375 -3.933594 L 5.734375 -4.933594 L 2.257812 -4.933594 L 2.257812 -7.59375 L 6.054688 -7.59375 L 6.054688 -8.632812 L 1.171875 -8.632812 L 1.171875 0 L 6.191406 0 L 6.191406 -1.035156 Z M 2.257812 -1.035156 "/></g></g></g><g fill="#ffc700" fill-opacity="1"><g transform="translate(240.539014, 282.697453)"><g><path d="M 7.199219 0 L 8.371094 0 L 4.746094 -8.632812 L 3.734375 -8.632812 L 0.210938 0 L 1.355469 0 L 2.195312 -2.058594 L 6.351562 -2.058594 Z M 4.253906 -7.140625 L 5.941406 -3.058594 L 2.601562 -3.058594 Z M 4.253906 -7.140625 "/></g></g></g><g fill="#ffc700" fill-opacity="1"><g transform="translate(253.47379, 282.697453)"><g><path d="M 11.246094 0 L 9.816406 -8.632812 L 8.742188 -8.632812 L 5.882812 -2.292969 L 3.03125 -8.632812 L 1.984375 -8.632812 L 0.53125 0 L 1.640625 0 L 2.773438 -6.730469 L 5.746094 -0.210938 L 6.042969 -0.210938 L 9.011719 -6.730469 L 10.136719 0 Z M 11.246094 0 "/></g></g></g></svg>